<?xml version="1.0" encoding="UTF-8" standalone="no"?>
<svg width="192" height="192" viewBox="0 0 192 192" fill="none" xmlns="http://www.w3.org/2000/svg">
  <!-- Circle background -->
  <circle cx="96" cy="96" r="86" fill="#6C5CE7" stroke="#FFFFFF" stroke-width="10"/>
  
  <!-- Letter D -->
  <path d="M58 48H86C102.569 48 116 61.4315 116 78V114C116 130.569 102.569 144 86 144H58V48Z" fill="#FFFFFF"/>
  
  <!-- Connection lines -->
  <path d="M126 68H144C149.523 68 154 72.4772 154 78V78C154 83.5228 149.523 88 144 88H126V68Z" fill="#FFFFFF"/>
  <path d="M126 104H144C149.523 104 154 108.477 154 114V114C154 119.523 149.523 124 144 124H126V104Z" fill="#FFFFFF"/>
  
  <!-- Dots -->
  <circle cx="126" cy="78" r="10" fill="#00CEC9"/>
  <circle cx="126" cy="114" r="10" fill="#00CEC9"/>
</svg>
