<?xml version="1.0" encoding="UTF-8" standalone="no"?>
<svg width="512" height="512" viewBox="0 0 512 512" fill="none" xmlns="http://www.w3.org/2000/svg">
  <rect width="512" height="512" rx="128" fill="#0d6efd"/>
  <g transform="translate(128, 96) scale(10.67)">
    <!-- Tree of life logo -->
    <path d="M12 2c0 0-9 6.5-9 13c0 4.4 4 7 9 7s9-2.6 9-7C21 8.5 12 2 12 2zm0 18c-3.9 0-7-1.7-7-5c0-4.9 7-10.5 7-10.5s7 5.6 7 10.5C19 18.3 15.9 20 12 20z" fill="white"/>
    <path d="M12 6.5c0 0-5 3.5-5 7.5c0 2.5 2.2 4 5 4s5-1.5 5-4C17 10 12 6.5 12 6.5zm0 9.5c-1.9 0-3-0.9-3-2c0-2.2 3-4.8 3-4.8s3 2.6 3 4.8C15 15.1 13.9 16 12 16z" fill="#0d6efd"/>
    <circle cx="12" cy="13" r="1.5" fill="white"/>
  </g>
</svg>
